# xmcd
# Copyright (C) 1995-1998 Ti Kan
#
# Track frame offsets:
#       150
#       13706
#       29294
#       40774
#       55733
#       69834
#       84545
#       100476
#       115527
#       128788
#       139514
#       156550
#       168643
#       184306
#       198894
#       212417
#
# Disc length: 3035 seconds
#
# Revision: 0
# Processed by: cddbd v1.5.2PL0 Copyright (c) Steve Scherf et al.
# Submitted via: CD-Transfer v1.0
#
DISCID=d40bd910
DTITLE=Naabtal Duo - 
DYEAR=1900
DGENRE=
TTITLE0=Dieses Gefühl
TTITLE1=Die Kleinen Sünden
TTITLE2=Kopf Hoch
TTITLE3=S´leben Is Koa Wunschkonzert
TTITLE4=Wer Frei Von Schuld
TTITLE5=Unser Papst Der Kommt Aus Bayern
TTITLE6=Die Frau Im Weissen Kleid
TTITLE7=Bis In Alle Ewigkeit
TTITLE8=Die Alten Leut
TTITLE9=Vergiss Deine Eltern Net
TTITLE10=Die Zeit Heilt Alle Wunden
TTITLE11=Leben, Leiden, Lachen
TTITLE12=Mit Tränen Im Gesicht
TTITLE13=Immer Träumt Er Dann Seinen Traum
TTITLE14=Mir San Echte Bayern
TTITLE15=Schön Ist Die Jugend
EXTD=
EXTT0=
EXTT1=
EXTT2=
EXTT3=
EXTT4=
EXTT5=
EXTT6=
EXTT7=
EXTT8=
EXTT9=
EXTT10=
EXTT11=
EXTT12=
EXTT13=
EXTT14=
EXTT15=
PLAYORDER=
